<?xml version="1.0" encoding="UTF-8"?>
<svg id="Layer_1" data-name="Layer 1" xmlns="http://www.w3.org/2000/svg" xmlns:xlink="http://www.w3.org/1999/xlink" viewBox="0 0 933.68 804.4">
  <defs>
    <style>
      .cls-1, .cls-2, .cls-3 {
        stroke-linejoin: bevel;
      }

      .cls-1, .cls-4 {
        fill: none;
      }

      .cls-1, .cls-3, .cls-5 {
        stroke: #fff;
      }

      .cls-2 {
        fill: #fff;
        stroke: #e4e5e7;
      }

      .cls-4, .cls-6 {
        stroke-width: 0px;
      }

      .cls-3, .cls-5 {
        fill: #f9a31a;
      }

      .cls-7 {
        clip-path: url(#clippath);
      }

      .cls-6 {
        fill: #231f20;
      }
    </style>
    <clipPath id="clippath">
      <path class="cls-4" d="M-1.16-1h897.6c21.2,0,38.4,17.2,38.4,38.4v729.6c0,21.2-17.2,38.4-38.4,38.4H-1.16V-1h0Z"/>
    </clipPath>
  </defs>
  <g id="Layer_1-2" data-name="Layer 1">
    <g class="cls-7">
      <g id="Mask_Group_116" data-name="Mask Group 116">
        <g id="Group_388" data-name="Group 388">
          <g id="worldmap">
            <path id="path13056" class="cls-2" d="M456.28,685.26l-6.32,6.6h-10.67v-9.72l8.27-5.33h8.72v8.45h0ZM474.58,656.79v9.58l-8.14-4.88v-7.45h8.14v-26.98h-20.78l-49.43,33.12-12.16-13.96v27.42h-30.05l17.44,47.76h57.24l44.05-50.96,1.99-13.78-8.32.13h.01ZM352.41,170.47l-10.93-9.97-.08,7.14,11.02,2.83ZM1025.04,82.64l1.94-10.92-20.38-3.28-7.78-12.73h-38.81l-79.33-19.64-8.72,19.64-32.26-9.82-24.08,18.35,78.43,45.82,90.72.97,10.93-22.25,29.32-6.12v-.02ZM998.84,55.71l7.78,12.73,20.38,3.28-1.94,10.92-29.28,6.13-10.97,22.24-90.72-.97-78.43-45.82-33.94,25.87,5.65,26.26-33.97,12.62,9.71,23.76,36.14,16.49,1.44,29.11,94.61,32.72,17.44-15.98,37.14,15.98-5.1,13.82,19.66,32.76,34.43-17.44,22.5,19.25,9.53-5.42.36,9.26,56.39-20.15,18.43-41.26-32.89-54.12,16.9-18.43h-19.43l-6.24,4.03-12.2-20.04,15.54-13.58,10.67,20.35,14.95-10.28,28.69-19.76v-38.33l-47.52-12.12-34.92-34.2h-33.94l7.73,27.41-14.54,2.93v-.02ZM1140.98,156.84l-19.52-15.97-8.63,7.97,11.65,25.22,14.1-.97,2.4-16.26h0ZM1121.46,140.86l-8.63-7.07,11.16-1.45-1.94-22.32-28.69,19.76,8.4,15.95,11.06,3.1,8.63-7.97h.01ZM977.56,398.29l6.24,20.24,27.65,14.1-24.23-35.77-9.67,1.44h.01ZM964.42,277.62l-19.66-32.76,5.06-13.82-11.39-4.88-15.28,10.98-7.19,49.66,11.34,9.49,4.33,22.68,7.99,2.4,5.74-7.19,10.67,12.02,5.92,21.96-1.4,22.68,9.17-17.98-16.49-59.46,11.16-8.09v-7.68h.02ZM997.4,305.54l13.19,17.94-12.34,12.38h27.65v-7.04l-26.93-28.64-5.96-18.43-18.71-9.13-9.89,5.02v7.68l9.67,5.65v14.59h23.32ZM974.08,305.54v-14.59l-9.67-5.65-11.16,8.09,16.49,59.46-9.17,17.98-.54,8.94,16,13.56,1.54,4.97,9.67-1.44-15.54-22.91,3.61-35.42,17.48,17.3v-14.51l17.8-17.84-13.19-17.94h-23.32ZM992.79,341.32v14.51l8.72,8.68,9.8-1.36,14.59-10.93v-16.36h-27.65l-5.47,5.47h0ZM998.98,300.16l26.93,28.64v23.4l-14.59,10.93.36,15.64,27.92-18.43-.95-27.42-29.14-30.77,1.44-16.85,10.39-5.87-22.5-19.25-24.53,12.42,18.71,9.13,5.98,18.43h-.02ZM882.54,240.52l-6.19,2.89,8.76,27.7,5.65-5.47,25.21,21.14,1.62-11.29-13.24-12.38-2.17-14.82-10.57,4.33-9.07-12.11h0ZM891.63,238.63l-15.28-3.79,2.12-9.58-4.38-1.52-9.35,14.89-51.37-19.45.13-16.4-12.83-4.44-1.45-29.11-11.21-5.1h-10.34l-15.36,10.92-.41,9.29,9.31,5.27,4.43,18.17-20.2,18.59h-12.92v13.74l9.67,3.66v11.83l-17.44,4.66,1.49,1.76,14.41,4.56-6.73,6.91,6.37,8.27,11.44,1.36,2.03-9.49,4.52.05,36.73,105.62,23.32-14.32,3.61-42.47,53.17-51.37-8.76-27.7,6.19-2.89,9.08,12.11,10.57-4.33,2.17,14.82,13.24,12.38,5.56-38.35,15.28-10.98-25.72-11.11-17.44,15.98-3.66,7.6v-.02ZM813.51,202.76l-.13,16.4,51.37,19.45,9.35-14.89-60.59-20.98h0ZM878.48,225.25l-2.12,9.58,15.28,3.79,3.66-7.6-16.81-5.78h0ZM587.48,102.5l10.88,9.05,13.87-3.83,12.29,10.26-2.12-26.63,18.94-4.37,24.94,17.1,20.87-4.01,15.28,20.14,14.72-.65,14.41-11.84,34.02-1.48,21.78,10.09-5.65-26.26,33.94-25.86-19.56-11.44-114.04-40.21-44.95,10.14v20.32h-79.7v26.26l10.67,13.33,22.81-9.22,13.6,9.22-16.49,8-.49,11.88h0ZM674.76,165.21l-7.63-12.36-29.82-9.47-17.62,5.88-.31,7.85h-22.45l-12.38-21.85-29.59,2.93v8.74l35.93,60.94,10.67,1.02,24.76,25.82,45.58,13.61h12.65l9.17-15.77-10.16-12.74-14.53-42.2,5.78-12.37h-.02ZM624.53,117.99l-12.29-10.26-13.87,3.83,22.14,18.34-.82,19.37,17.62-5.88,29.87,9.46,7.63,12.36,28.38-14.54-46.76-37.42h-19.84l-12.06,4.74h0ZM742.54,226.34h12.92l20.2-18.59-4.43-18.17-9.31-5.27.41-9.29,15.36-10.92h10.34l-21.55-9.84-22.96,3.31-7.27,31.52-26.52,24.52-28.46-.29,2.26,6.46,10.16,12.74-9.17,15.77h39.76l10.48,11.93,17.44-4.66v-11.84l-9.67-3.66v-13.73h.02ZM666.27,104.08l-24.94-17.1-18.94,4.37,2.12,26.63,12.06-4.75h19.84l46.76,37.42,15.31,4.1-6.96-20.46,21.73-6.24,1.22-9.25-32.08,1.42-15.28-20.14-20.88,4.01h.01ZM674.76,165.21l-5.77,12.37,12.29,35.75,28.46.29,26.52-24.52,7.27-31.52-4.7-13.28-20.33,10.46-15.31-4.1-28.43,14.56h0ZM736.89,138.18l-18.25-5.93-7.09,2.04,6.96,20.46,20.33-10.46,4.7,13.28,22.96-3.31-3.38-1.54-6.68-16.4-19.52,1.86h-.01ZM731.56,107.73l-14.41,11.84,17.35-.77-1.22,9.25-14.64,4.19,18.25,5.93,19.52-1.85-3.02-7.36,33.97-12.62-21.78-10.09s-34.02,1.48-34.02,1.48ZM557.39,124.77l13.01,11.87,14.14-1.39-9.85-17.35-10.67-2.64-6.64,9.52h.01ZM529.42,119.86l19.3,4.91h8.68l6.64-9.52-24.62-11.16-9.98,2.16v13.61ZM554.96,138.18l15.46-1.52-13.01-11.87h-8.68l6.24,13.4h-.01ZM407.9-9.78l-5.1,1.2,1.31.98-1.44,6.55-14.32-6.55.05,8.51,19.51,4.98,14.05,6.43,5.42-4.63-1.94-13.81-7.14,2.17-10.39-5.82h-.01ZM388.42,10.62l10.88,3.62,2.98,6.17,2.35,6.58,17.3-14.68-14.05-6.43-19.52-4.98.05,9.72h.01ZM443.72,7.68h-16.36l-22.73,19.31,3.61,9.96,32.58,5.2,20.33-4.44-12.11-4.92,7.27-4.64-12.61-20.46h.01ZM398.36-17.57l-1.72,4.37,6.14,4.63,5.1-1.2,10.39,5.82,7.14-2.17-2.22-15.73-4.07,3.82-20.78.47h.01ZM440.82,42.15l-32.58-5.2,2.03,5.65-11.65,14.53v8.22h44.05l4.25,8.05-7.63,11.96,6.68,2.8,1.81-5.54h26.11l-5.78,6,8.04,4.55,10.85-.85-10.3-13.15,27.11-5.76,6.91-15.53-49.56-20.18-20.33,4.44h-.01ZM378.8-85.07l-45.64,33.47v29.77l-6.28,9.84,17.17,19.76,28.01-24.8-13.1-16.26,29.5-32.24h5.83l-8.04-19.52h-7.45,0ZM298.32-9.76l26.7-4.37,1.85,2.12,6.28-9.84v-29.77l45.67-33.47h25.26v-8.34l-25.88,1.32-88.78,61.44,8.9,20.89h0ZM404.09-85.07h-17.8l7.99,19.52h4.7l-14.18,32.14,16.58,8.36h25.26l14.18-16.37-23.54-52.68-13.19.67v8.35h-.01ZM399.12,14.28l-10.88-3.62.05,7.25,13.82,2.54-2.98-6.17h-.01ZM1050.16-94.74l-8.36-11.35-51.68-8.45-14.54,13.1h-41.83l-17.44-13.1h-94.61l-5.83-20.86h-87.34l-76.98,34.44,16.85,20.87-14.54,15.04-13.15-42.97-23.22-1.84,11.16,25.4-89.77,2.42-83.9,34.44-11.06-21.08,31.9,1.2,15.54-7.76-61.13-19.49-13.01.66,23.54,52.68-14.18,16.37-3.44,3.22,2.22,15.73,1.94,13.81h16.37l12.6,20.46-7.27,4.64,12.11,4.92,49.56,20.18-6.91,15.53,3.25,7.75-7.99,2.18,1.4,12.76,28.96,10.14,9.98-2.16,24.62,11.16,10.67,2.64-6.64-11.64v-23.62l-10.67-13.33v-26.26h79.69v-20.32l44.95-10.13,114.04,40.21,19.56,11.42,24.1-18.35,32.26,9.82,8.72-19.64,79.33,19.64h38.81l14.54-2.92-7.78-27.41h33.97l34.92,34.2,47.53,12.12v38.33l20.83-3.66,11.21-16.72v-31.04l-32.03-36.38-31.04-.48,5.33-38.32,64.02.48,6.96-21.74,27.02,10.22.08-10.02,6.68.7,11.65,11.16-11.26,7.66-1.36,22.9,45.59,43.18V6.26l-25.7-24.74,60.9-19.28.77-6.22-30.64-8.33,11.93-9.3,27.38,5.65,18.56.36-14.92-16-95.6-18.94-148.19-4.22h0ZM367.5,67.63l-11.26,9.22,16.36,6.07,17.44-3.01,13.82-14.54h-5.46v-3.44l-30.9,5.69v.02ZM359.14,59.73l8.35,7.91,30.9-5.69v-4.79l-28.01-3.41-1.18-.46-10.08,6.43h.01ZM300.14,82.21l10.03.72,9.08-2.1-3.25-9.83h-8.54l-5.56,2.57-1.76,8.64h0ZM338.54,59.72h20.6l10.08-6.43-19.7-7.76-17.62,5.46s6.64,8.74,6.64,8.74ZM200.1,154.42l4.07.31,4.7-39.47-15.28-2.56-.77,28.86,7.27,12.85ZM439.06,85.39l7.63-11.96-4.25-8.05h-13.06l9.67,20.02h0ZM402.06,20.42l-13.82-2.54-14.54.48-3.3-3.02-20.87,5.09-1.85-.02,1.85,25.13,19.74,7.76,1.13.46,28.01,3.41,11.65-14.53-2.03-5.65-3.61-9.96-2.35-6.58h0ZM403.86,65.37l-13.82,14.54,12.38,20.56,30.9-3.52,8.81,2.42,3.61-11.18-6.68-2.8-9.67-20.02h-25.52ZM347.62,20.4l-26.8-.31-1.22-4.76h-9.4l1.9,4.58-14.1,8.45-1.26,24.34,8.54,4.46-3.38,16.4,5.56-2.56h19.88l1.72-.5,14.41-4.22-4.92-6.55-6.65-8.74,17.62-5.46-1.91-25.13h.01ZM310.22,15.33h9.4l-.49-2.02,3.07-17.27-8.45-.12-6.01,13.55,2.48,5.86h0ZM335.3,9.28l-5.28-5.23-4.7,1.93-1.44,7.43,8.76-.08,2.66-4.03h0ZM343.47,66.26l-16.13,4.73h-11.34l3.25,9.83,17.22-3.98h19.79l8.27-6.79,2.98-2.42-8.35-7.91h-20.6l4.93,6.55h-.01ZM353.32,144.82h-17.48v4.37l6.55,4.49,10.93,1.69v-10.55h0ZM307.46,120.2v17.95h8.35v-15.53l-8.35-2.42ZM300.14,82.17l-1.6,7.72,10.12,4.61h11.75l36.14,36.07,1.85,15.35,6.65-3.88,2.08-11.03,8.22-1.64-44.1-38.16,12.52-.74-7.32-13.63-26.29,6.07-10.03-.72h.02ZM311.66,107.84v7.4l4.15,1.57,1.85-8.96h-6.01.01ZM228.26,62.48v5.33l15,8.1,1.99,26.58,22.22,14.22,6.86-8.88,32.53.24.95-13.57h.85l-10.13-4.61,6.73-32.76-29.59-15.44-34.7,20.8h-12.73.01ZM283.97,36.74l-8.27,4.94,16.58,8.65,4.74-2.56.18-4.01-13.24-7.02h0ZM297.21,43.77l.82-15.44-14.05,8.41,13.24,7.03h0ZM292.29,50.34l4.48,2.33.23-4.88-4.69,2.56h-.01ZM237.96,12.51l.18,11.16-7.64,4.18,6.73,9.8-13.64,12.94,18.02-3.28,18.35-2.9,1.18-6.73h3.74l.82-7.51-11.88-2.51-14.87-34.15-11.34-.35V11.54l10.34.97h.01ZM223.6,20.58v-7.28l-13.28-.9,7.63,10.19,5.65-2h0ZM196.85,22.26v19.9l7.63-.05v-6.79l14.54,2-1.08-14.74-7.63-10.19-13.46,9.88h0ZM204.17,154.72l31.85,2.38,31.44-40.37-22.22-14.22-51.42.37-.23,9.82,15.28,2.56-4.69,39.47h0ZM274.74,137.73v-8.54l-9.85,8.54h9.85ZM391.13,127.8l20.2-6.53-4.66-10.85-16.63,3.25,1.08,14.14h.01ZM378.34,81.9l3.71,20.6,7.99,11.16,16.63-3.25-4.25-9.96-12.38-20.56-11.7,2h0ZM343.78,90.44l1.85-.11,9.49-4.97,4.3-7.37-3.17-1.19h-19.79l7.32,13.62h0ZM444.63,130.4l-15.05-.12,12.38,24.88,56.88,3.14,55.88-11.4v-8.74l-6.24-13.4-19.3-4.91-77.88,2.54s-6.68,8-6.68,8ZM429.53,124.76h13.87l-5.6-12.06-8.4,2.71.13,9.35h0ZM367.41,108.63l5.02,1.25,9.62-7.37-2.71-15.16-20.56,2.78,8.63,18.49h0ZM383.63,130.21l6.42,7.42,12.38,3.46-7.55,3.2,9.98,12.55,6.28-9.94-7.01-15.29,13.92-6.85h11.47l-.13-9.35-45.77,14.8h0ZM372.6,82.9l-13.19-4.9-4.3,7.37-9.49,4.97,3.3-.2,15.31,17.71,3.17.78-8.63-18.49,20.56-2.78-1-5.45-5.74,1h0ZM378.44,111.37l7.22-3.84-3.61-5.02-9.62,7.37,6.01,1.48h0ZM378.44,111.37l4.07,17.53,1.13,1.32,7.5-2.42-1.08-14.14-4.38-6.14-7.24,3.84h0ZM411.33,121.27l26.47-8.56,4.33-13.34-8.81-2.42-30.9,3.52,8.9,20.82h0ZM608.9,248.41l6.14,4.07,4.02-4.15-7.04-9.94-3.12,10.03h0ZM486.33,164.68l-16.22,6,11.62,2.9,4.61-8.9ZM496.77,185.44v29.16l6.1.73,9.08-4.25,2.8-16.37,7.09-3,.36-.16-2.08-8.7-14.59,8.7-8.76-6.11h0ZM606.9,247.11l-16.04-26.21h-7.01l-5.02-6.5-13.69-.05-43.33-22.64-7.14,3-2.76,16.37-9.12,4.25-6.05-.73,56.52,98.22,1.13,3.66,5.87-10.08,20.06,2.53-1.85,7.63,28.42-14.9,39.98-10.7v-20.82l-20.83-2.94-6.32-11.62-12.83-8.47h.01ZM572.52,214.38l6.37.02,4.97,6.5h7l-8.5-13.82h-7.99l-1.85,7.3ZM531.95,175.8l-11.83,7.07,2.17,9.08,42.88,22.42,7.37.02,1.85-7.3,15.77-.1-35.42-60.05-16.26,3.32-6.5,25.54h-.01ZM634.91,258.56l-15.18-2.98,6.32,11.62,11.75,1.67,16.72-16.99-7.63-6.78-11.98,13.46ZM637.8,268.87l9.08,1.26v20.83l-20.1,5.38v12.11l11.21,7.6,37.06-45.9-20.51-18.25-16.73,16.99h-.01ZM503.34,173.23l-6.6,12.2,8.76,6.11,26.45-15.77,6.5-25.54-39.62,8.08-2.66,12.42,7.18,2.5h0ZM606.9,301.68l-28.4,14.89,1.85-7.63-20.06-2.53-5.88,10.08,10.03,32.71,73.55-33.17-11.21-7.6v-12.11l-19.88,5.34h.01ZM496.76,185.42l6.6-12.2-7.19-2.5-2.62,12.41,3.2,2.28h0ZM496.56,215.01l.18-.43v-29.16l-3.2-2.28-5.06,18.68,8.09,13.19h0ZM557.03,631.29l7.68,18.17,18.38.82,31.31-100.44h-11.16l-36.37,37.76-3.66,26.21-6.19,17.5h.01ZM354.89,384.61l-5.33-15.77h10.67l-13.15-27.92v15.46l-18.89,39.13-16.49.95-2.3,16.08h7.14l-.36,16.44h45.49l2.03-5.83h-.1l-13.6-19.15,4.88-19.37h0ZM328.68,440.95h-12.78l-.41,19.56,16.4,21.91v-18.76h21.06l-10.75-34.7h-13.51v11.98h-.01ZM328.68,440.95v-11.98h-12.47l-.31,11.98h12.78ZM285.99,399.66l2.89,12.88h20.51l2.3-16.08,16.49-.96,18.89-39.12v-15.46h-70.7l-11.47,55.67,21.1,3.07h0ZM181.67,388.99l5.2,5.83v24.26l38.5-11.11v-35.6l-37.58-7.4v18.71l-6.1,5.33h-.01ZM186.87,419.08v-24.26l-13.92-15.68-12.34,11.62,26.26,28.33ZM418.6,532.3l-13.28-6.55v-24.22h-15l-3.02,10.67-14.95.49-3.89-13.42-23.76.18v52.99l-13.56,22.32,1.18,14.54h83.81l-13.69-16.99v-18.94h16.72l-.54-21.1h0ZM251.48,400.42l-6.24-38.14h-19.87v45.67l26.11-7.55h0ZM342.2,428.97l10.75,34.69h-21.05v18.74l8.27,11.03,20.06-9.17,21.1-35.02,3.35-26.11h-20.96l-2.03,5.83h-19.49ZM538.28,332.78l12.42,19.66,4.74-3.97-31.49-54.08-16.26,38.4h30.59,0ZM160.67,390.75l12.29-11.62-12.6-14.18-12.24,12.29,12.55,13.51h0ZM554.01,365.26l7.91-5.69-6.46-11.11-9.44,7.91,7.99,8.9h0ZM495.54,541.74v11.65l10.21,6.82v14.54l-9.72,8.5v-17.03l-9.72-7.96-.28.18-18.35,12.79,18.35,12.02v16.81l-11.47,26.83v29.72l8.32-.13.54-4.02,17.21-12.02-1.26-36.19,40.39-33.12-4.02-37.76-40.21,8.36h.01ZM561.92,359.58l-7.91,5.69,8.04,9.04,32.03,11.34-50.02,41.65v36.24l78.38-91.18-3.2-16-54.49,8.08-2.84-4.87h.01ZM362.16,673.48h30.1v-76.94h39.94l-5.2-7.22h-94.7l29.87,84.17h0ZM511.17,410.13l-13.74,1.94,3.94,16.9-1.93,14.32-6.14,10.85,37.58,24.8,13.19-15.41v-36.24l14.54-12.16h-42.65l-4.79-5h0ZM493.28,454.14l-2.35,4.12h-13.51l3.48-5.96h-6.14l-13.82,34.25,25.12,35.38h9.49v19.84l40.21-8.36-4.88-54.44-37.6-24.8h.01ZM185.56,239.53h-22.32v25.62l-8.22,12.47h-27.56l-1,28.78,33.89,24.35v-8.72h40.75l-3.89-69.48h21.46l-33.12-24.44v11.42h.01ZM469.16,466.2l5.6-13.92h-11.93l-3.79,16.04,10.12-2.12ZM460.94,486.54l8.22-20.33-10.12,2.12-2.76,11.62,4.66,6.6h0ZM135.05,363.14l13.06,14.1,12.24-12.29,12.6,14.18,8.72,9.85,6.1-5.33v-18.71l-2.94-13.33h-38.8l-10.98,11.52h0ZM201.1,322.03h-40.75v8.72l9.22,20.87h15.28l2.94,13.33,18.79,3.71v-18.84l72.16-29.23v-23.81l-60.05-44.23h-21.46l3.89,69.48h-.01ZM451.9,537.4l14.54,5.83-5.06,10.16-42.78-21.1.54,21.1h-16.72v18.94l13.69,16.99h25.62l44.32-30.86v-36.55l-5.56-7.81-24.22,3.66-4.38,19.66h0ZM392.26,646.06l12.11,13.96,49.43-33.12-21.6-30.36h-39.94v49.52h0ZM206.57,368.66l18.79,3.71v-10.08h19.88l23.09-8.5-22.04-20.05-39.71,16.08v18.85h-.01ZM486.05,521.91v36.55l.28-.18,9.72,7.96v17.03l9.71-8.5v-14.54l-10.21-6.82v-31.49h-9.49ZM550.71,352.44l-12.42-19.66h-30.59l-21.64,51.1,29.9,31.26h42.65l35.46-29.5-32.03-11.34-16.04-17.94,4.7-3.94h0ZM462.83,452.29h18.07l5.15-8.99h13.38l1.94-14.32-3.94-16.9-25.9,3.61-8.71,36.6h0ZM278.72,296.78v23.81l-32.44,13.14,22.09,20.06,5.78-2.12,2.22-10.75h70.7l15.95-32.71-6.28-43.06h-31.44l-46.58,31.63h-.01ZM127.5,277.62h27.52l8.27-12.47v-25.62h22.32v-15.54h-24.58l-33.16,43.19-.36,10.44h-.01ZM125.48,334.41l22.27,6.5h-22.5l-.41,10.7h44.72l-9.22-20.87-33.88-24.35-1,28.01h0ZM147.75,340.92l-22.27-6.5-.23,6.5h22.5ZM362.98,308.2l-15.9,32.71,13.15,27.92h-10.67l5.33,15.77,52.78-24.94v-27.16l11.75-11.57,1.18-26.39-45.82-29.41h-18.02l6.23,43.06h0ZM363.11,201.22l-9.62-11.66-20.65-4.96-19.2,20.65,12.47,59.9h48.66l45.82,29.41,4.48-101.39-26.66-3.61-11.03,16.5-24.26-4.85h.01ZM181.72,223.99h3.89v-3.3l55.3-30.18v-21.66l-40.75,4.25-39.12,50.92h20.69v-.02ZM240.9,168.86v21.66l-55.3,30.18v7.4l93.12,68.68,46.58-31.63h.82l-22.73-109.2-26.75-.77-35.75,13.67h0ZM303.39,155.95l10.26,49.33,19.2-20.65-7.55-1.81.95-26.21-22.86-.67h0ZM427,589.32l26.8,37.6h20.78l11.47-26.83v-16.81l-18.35-12.02-25.98,18.07h-14.72ZM439.29,691.69h10.67l6.32-6.6v-8.45h-8.72l-8.27,5.33v9.72ZM474.57,653.88h-8.14v7.45l8.14,4.88v-12.34ZM496.43,215.36l.13-.38-8.09-13.18-63.43-8.62-3.38,76.9h69.53l14-7.99-28.82-49.51,15.77,12.85,4.3-10.06h0ZM505.19,262.12l-14,7.99h-69.56l-2.22,50.83-11.75,11.57v27.16l41.6,47.89,22.27,8.14,39.58-5.56-25.08-26.26,21.64-51.1,16.26-38.4-18.74-32.26h.01ZM456.28,479.94l15.28-64.24-22.28-8.14-62.84,1.76-5.1,39.94-21.08,35.02-20.06,9.17,4.52,6.01,23.76-.18,3.89,13.42,14.95-.49,3.02-10.67h15v24.22l56.06,27.65,5.06-10.16-14.54-5.83,4.38-19.66,24.22-3.66-24.22-34.15h-.01ZM350.02,403.99l13.6,19.15h21.06l1.76-13.82,62.84-1.76-41.62-47.89-52.78,24.94-4.88,19.38h.01ZM274.16,351.67l-19.7,7.22,6.46,38.81,3.97-1.13,9.26-44.9h.01ZM254.46,358.89l-9.22,3.38,6.24,38.14,9.44-2.71-6.47-38.81ZM135.05,363.14l10.98-11.52h-21.14l-.05.49,10.21,11.03Z"/>
          </g>
          <g id="Group_344" data-name="Group 344">
            <path id="Path_306" data-name="Path 306" class="cls-3" d="M496.95,185.67l6.6-12.2-7.19-2.48-2.62,12.41,3.2,2.28h0Z"/>
            <path id="Path_307" data-name="Path 307" class="cls-5" d="M538.66,150.51l-6.5,25.54-11.83,7.07,2.17,9.08,42.88,22.42,7.37.02,1.85-7.3,15.77-.1-35.42-60.05-16.26,3.32h-.01Z"/>
            <path id="Path_310" data-name="Path 310" class="cls-1" d="M496.96,185.68v29.16l6.1.73,9.08-4.25,2.8-16.37,7.09-3,.36-.16-2.08-8.7-14.59,8.7-8.76-6.12h0Z"/>
            <path id="Path_312" data-name="Path 312" class="cls-3" d="M607.11,247.35l-16.04-26.21h-7.01l-5.02-6.5-13.69-.05-43.33-22.64-7.14,3-2.76,16.37-9.13,4.25-6.06-.73,56.52,98.22,1.13,3.66,5.87-10.08,20.06,2.53-1.85,7.63,28.42-14.9,39.98-10.72v-20.82l-20.83-2.94-6.32-11.62-12.82-8.47.02.02Z"/>
            <path id="Path_313" data-name="Path 313" class="cls-5" d="M635.1,258.81l-15.18-2.99,6.32,11.62,11.75,1.67,16.72-16.99-7.63-6.78-11.98,13.46h0Z"/>
            <path id="Path_316" data-name="Path 316" class="cls-3" d="M241.1,169.11v21.66l-55.3,30.18v7.42l93.12,68.68,46.58-31.62h.82l-22.73-109.2-26.75-.77-35.74,13.67h-.01Z"/>
            <path id="Path_318" data-name="Path 318" class="cls-3" d="M609.09,248.66l6.14,4.07,4.02-4.15-7.04-9.94-3.12,10.03h0Z"/>
            <path id="Path_320" data-name="Path 320" class="cls-3" d="M127.7,277.87h27.52l8.27-12.47v-25.62h22.32v-15.54h-24.58l-33.17,43.19s-.36,10.44-.36,10.44Z"/>
            <path id="Path_322" data-name="Path 322" class="cls-3" d="M181.91,224.23h3.89v-3.3l55.3-30.18v-21.66l-40.75,4.25-39.12,50.92h20.69v-.02Z"/>
            <path id="Path_323" data-name="Path 323" class="cls-5" d="M125.67,334.65l22.27,6.5h-22.5l-.41,10.7h44.72l-9.22-20.87-33.88-24.35-1,28.01h0Z"/>
            <path id="Path_326" data-name="Path 326" class="cls-3" d="M201.3,322.28h-40.75v8.72l9.22,20.87h15.28l2.94,13.33,18.79,3.71v-18.84l72.16-29.23v-23.81l-60.05-44.23h-21.46l3.89,69.49h-.01Z"/>
            <path id="Path_328" data-name="Path 328" class="cls-3" d="M181.86,389.24l5.2,5.83v24.26l38.5-11.11v-35.6l-37.6-7.42v18.71l-6.1,5.34h0Z"/>
            <path id="Path_330" data-name="Path 330" class="cls-3" d="M206.76,368.9l18.79,3.71v-10.08h19.88l23.09-8.5-22.04-20.05-39.71,16.08v18.85h-.01Z"/>
            <path id="Path_332" data-name="Path 332" class="cls-3" d="M251.67,400.66l-6.24-38.14h-19.87v45.67l26.11-7.55h0Z"/>
            <path id="Path_334" data-name="Path 334" class="cls-3" d="M254.66,359.14l-9.22,3.38,6.24,38.14,9.44-2.71-6.47-38.81Z"/>
            <path id="Path_336" data-name="Path 336" class="cls-3" d="M274.36,351.91l-19.7,7.22,6.46,38.81,3.97-1.13,9.26-44.9h.01Z"/>
            <path id="Path_338" data-name="Path 338" class="cls-3" d="M278.92,297.02v23.81l-32.44,13.14,22.09,20.06,5.78-2.12,2.22-10.75h70.7l15.95-32.71-6.28-43.06h-31.44l-46.58,31.63h-.01Z"/>
            <path id="Path_340" data-name="Path 340" class="cls-3" d="M328.89,441.2h-12.78l-.41,19.56,16.4,21.91v-18.76h21.05l-10.75-34.7h-13.51v11.98h0Z"/>
            <path id="Path_342" data-name="Path 342" class="cls-3" d="M392.45,646.3l12.11,13.96,49.43-33.12-21.6-30.36h-39.94v49.52h0Z"/>
            <path id="Path_344" data-name="Path 344" class="cls-3" d="M495.74,541.99v11.65l10.21,6.82v14.54l-9.72,8.5v-17.03l-9.72-7.96-.28.18-18.34,12.78,18.35,12.02v16.81l-11.47,26.83v29.72l8.32-.13.54-4.02,17.22-12.02-1.26-36.19,40.39-33.12-4.02-37.78-40.21,8.35v.04Z"/>
            <path id="Path_346" data-name="Path 346" class="cls-3" d="M474.76,654.12h-8.14v7.45l8.14,4.88v-12.34Z"/>
            <path id="Path_347" data-name="Path 347" class="cls-5" d="M474.77,657.04h0ZM453.99,627.31l-49.43,33.12-12.16-13.96v27.42h-30.05l17.44,47.76h57.24l44.05-50.96,1.99-13.78-8.3.13v9.56l-8.14-4.88v-7.45h8.14v-26.98h-20.78,0Z"/>
          </g>
        </g>
        <path id="Rectangle_459" data-name="Rectangle 459" class="cls-4" d="M-1.16-1h897.6c21.2,0,38.4,17.2,38.4,38.4v691.2c0,21.2-17.2,38.4-38.4,38.4H-1.16V-1h0Z"/>
      </g>
    </g>
  </g>
  <g id="Layer_2" data-name="Layer 2">
    <path class="cls-6" d="M139.6,328.71s-10.26-8.03-10.26-14.46,5.32-9.95,10.26-9.95,10,4.2,10,10.21-8.03,12.29-10,14.2Z"/>
    <path class="cls-6" d="M229.89,313.29s-10.26-8.03-10.26-14.46,5.32-9.95,10.26-9.95,10,4.2,10,10.21-8.03,12.29-10,14.2Z"/>
    <path class="cls-6" d="M267.47,236.08s-10.26-8.03-10.26-14.46,5.32-9.95,10.26-9.95,10,4.2,10,10.21-8.03,12.29-10,14.2Z"/>
    <path class="cls-6" d="M196.38,200.54s-10.26-8.03-10.26-14.46,5.32-9.95,10.26-9.95,10,4.2,10,10.21-8.03,12.29-10,14.2Z"/>
    <path class="cls-6" d="M234.38,350.47s-10.26-8.03-10.26-14.46,5.32-9.95,10.26-9.95,10,4.2,10,10.21-8.03,12.29-10,14.2Z"/>
    <path class="cls-6" d="M267.47,360.27s-10.26-8.03-10.26-14.46,5.32-9.95,10.26-9.95,10,4.2,10,10.21-8.03,12.29-10,14.2Z"/>
    <path class="cls-6" d="M252.76,377.84s-10.26-8.03-10.26-14.46,5.32-9.95,10.26-9.95,10,4.2,10,10.21-8.03,12.29-10,14.2Z"/>
    <path class="cls-6" d="M237.23,395s-10.26-8.03-10.26-14.46,5.32-9.95,10.26-9.95,10,4.2,10,10.21-8.03,12.29-10,14.2Z"/>
    <path class="cls-6" d="M206.19,399.9s-10.26-8.03-10.26-14.46,5.32-9.95,10.26-9.95,10,4.2,10,10.21-8.03,12.29-10,14.2Z"/>
    <path class="cls-6" d="M330.78,450.14s-10.26-8.03-10.26-14.46,5.32-9.95,10.26-9.95,10,4.2,10,10.21-8.03,12.29-10,14.2Z"/>
    <path class="cls-6" d="M414.12,627.24s-10.26-8.03-10.26-14.46,5.32-9.95,10.26-9.95,10,4.2,10,10.21-8.03,12.29-10,14.2Z"/>
    <path class="cls-6" d="M471.41,658.8s-10.26-8.03-10.26-14.46,5.32-9.95,10.26-9.95,10,4.2,10,10.21-8.03,12.29-10,14.2h0Z"/>
    <path class="cls-6" d="M424.54,698.31s-10.26-8.03-10.26-14.46,5.32-9.95,10.26-9.95,10,4.2,10,10.21-8.03,12.29-10,14.2h0Z"/>
    <path class="cls-6" d="M513.72,575.48s-10.26-8.03-10.26-14.46,5.32-9.95,10.26-9.95,10,4.2,10,10.21-8.03,12.29-10,14.2Z"/>
    <path class="cls-6" d="M498.69,176.44s-10.26-8.03-10.26-14.46,5.32-9.95,10.26-9.95,10,4.2,10,10.21-8.03,12.29-10,14.2Z"/>
    <path class="cls-6" d="M550.97,189.92s-10.26-8.03-10.26-14.46,5.32-9.95,10.26-9.95,10,4.2,10,10.21-8.03,12.29-10,14.2Z"/>
    <path class="cls-6" d="M560.37,259.78s-10.26-8.03-10.26-14.46,5.32-9.95,10.26-9.95,10,4.2,10,10.21-8.03,12.29-10,14.2Z"/>
    <path class="cls-6" d="M612.66,245.89s-10.26-8.03-10.26-14.46,5.32-9.95,10.26-9.95,10,4.2,10,10.21-8.03,12.29-10,14.2Z"/>
    <path class="cls-6" d="M640.84,257.73s-10.26-8.03-10.26-14.46,5.32-9.95,10.26-9.95,10,4.2,10,10.21-8.03,12.29-10,14.2Z"/>
    <path class="cls-6" d="M325.07,313.29s-10.26-8.03-10.26-14.46,5.32-9.95,10.26-9.95,10,4.2,10,10.21-8.03,12.29-10,14.2Z"/>
  </g>
</svg>