<svg xmlns="http://www.w3.org/2000/svg" width="736.95" height="768.749" viewBox="0 0 736.95 768.749">
  <g id="Group_335" data-name="Group 335" transform="translate(-411.738 -1761.225)">
    <path id="Path_304" data-name="Path 304" d="M553.195,4.993,574.928.556l47.33,80.233-10.378.127L623.23,99.39,644.664,134.4l2.652,1.737,4.164-13.4,9.419,13.282-5.373,5.554,6.271,4.15v0l20.281,3.983,16-17.989,10.2,9.055.01,0L735.7,165.164,686.188,226.5l.008,0-98.284,44.312-13.4-43.709H574.5l-1.509-4.891L497.47,90.968l0-.034-.242.574-.006-.011-.172.479-5.734,13.439-21.07-17.175,38.517,66.166-.008.055L533.8,197.568l.014,0L575.9,269.835l.008,0,8.633,14.851v.006l3.8,6.507,72.813-10.787,4.286,21.371L560.688,423.612l0-.013-17.629,20.587,6.52,72.745.006,0,5.373,50.47-53.972,44.256,1.69,48.356-23,16.059-.725,5.373-.008.223-2.657,18.413-58.862,68.1H340.934l-23.3-63.819v-.216L277.724,591.672h.006l-1.57-19.437,18.111-29.825V471.588l-6.035-8.025-.006,0-11.048-14.731h0l-21.915-29.28.544-26.137.423-16-.061-.018.481-21.968h-9.534l0,.01H219.709l-3.864-17.205-28.192-4.11v-.008l-5.3,1.507v0l-12.618,3.622-.008.008-34.895,10.083h0L83.386,364.2,48.3,326.342l.04-.038L31.611,308.291h-.018L14.146,289.455v-.008L.5,274.718l.059-.656H.5l.544-14.308h0l.3-8.694,1.336-37.427-.006,0L4,175.172h.059l.487-13.945,44.312-57.708h.008l52.269-68.031,54.454-5.675v.035l47.76-18.268,35.738,1.033,0-.024,30.546.9L268.365,48.5l10.052,2.408.032-.035,27.59,6.622L318.9,73.086l32.419,6.478,14.731-22.041,35.613,4.828v-.01l84.76,11.519,0,0,6.757-24.942.008,0,3.5-16.583,3.561-16.6L553.193,4.946,574.933.49,500.254,15.723ZM83.386,331.776h0l-.021-.024Z" transform="translate(412.302 1761.296)" fill="#e4e5e7" stroke="#fff" stroke-width="1"/>
    <g id="Group_330" data-name="Group 330" transform="translate(412 1761)">
      <path id="Path_75" data-name="Path 75" d="M311.7,39.948l8.819-16.306-9.6-3.327-3.5,16.582Z" transform="translate(185.524 12.26)" fill="#f9a31a" stroke="#fff" stroke-linejoin="bevel" stroke-width="1"/>
      <path id="Path_76" data-name="Path 76" d="M354.07,4.927l-8.7,34.117-15.817,9.441,2.9,12.14,57.292,29.95,9.841.03,2.474-9.756,21.07-.127L375.8.49Z" transform="translate(198.882 0.296)" fill="#f9a31a" stroke="#fff" stroke-width="1"/>
      <path id="Path_79" data-name="Path 79" d="M310.1,33.871V72.836l8.151.972,12.135-5.675,3.743-21.878,9.478-4.009.481-.205-2.777-11.622-19.5,11.622Z" transform="translate(187.139 18.357)" fill="#f9a31a" stroke="#fff" stroke-linejoin="bevel" stroke-width="1"/>
      <path id="Path_81" data-name="Path 81" d="M457.286,111.824,435.852,76.809h-9.358l-6.7-8.688L401.5,68.061,343.6,37.8l-9.539,4.009-3.688,21.878-12.195,5.675-8.09-.972,75.524,131.247,1.509,4.891,7.847-13.469,26.8,3.38-2.476,10.2,37.974-19.922L510.7,170.409V142.584l-27.832-3.924-8.452-15.515Z" transform="translate(187.135 22.81)" fill="#f9a31a" stroke="#fff" stroke-linejoin="bevel" stroke-width="1"/>
      <path id="Path_82" data-name="Path 82" d="M432.855,100.28,412.571,96.3l8.454,15.515,15.695,2.232,22.338-22.7-10.2-9.053Z" transform="translate(248.98 49.661)" fill="#f9a31a" stroke="#fff" stroke-width="1"/>
      <path id="Path_85" data-name="Path 85" d="M124.694,25.633V54.575L50.8,94.909v9.9l124.43,91.764,62.242-42.26h1.087L208.194,8.4l-35.74-1.033Z" transform="translate(30.657 4.445)" fill="#f9a31a" stroke="#fff" stroke-linejoin="bevel" stroke-width="1"/>
      <path id="Path_87" data-name="Path 87" d="M403.543,90.091l8.21,5.434,5.373-5.554-9.419-13.282Z" transform="translate(243.531 46.28)" fill="#f9a31a" stroke="#fff" stroke-linejoin="bevel" stroke-width="1"/>
      <path id="Path_89" data-name="Path 89" d="M2.383,136.357H39.149L50.2,119.7V85.459H80.022V64.7H47.182L2.87,122.41Z" transform="translate(1.438 39.047)" fill="#f9a31a" stroke="#fff" stroke-linejoin="bevel" stroke-width="1"/>
      <path id="Path_91" data-name="Path 91" d="M57.966,92.424h5.192V88.011l73.893-40.334V18.736L82.6,24.411,30.324,92.448Z" transform="translate(18.3 11.307)" fill="#f9a31a" stroke="#fff" stroke-linejoin="bevel" stroke-width="1"/>
      <path id="Path_92" data-name="Path 92" d="M1.007,170.8,30.769,179.5H.7L.16,193.8H59.927L47.611,165.914,2.343,133.373Z" transform="translate(0.097 80.488)" fill="#f9a31a" stroke="#fff" stroke-width="1"/>
      <path id="Path_94" data-name="Path 94" d="M84.209,181.344H29.755v11.651l12.316,27.891H62.477L66.4,238.7l25.114,4.95V218.471l96.413-39.061V147.6l-80.233-59.1H79.017Z" transform="translate(17.956 53.405)" fill="#f9a31a" stroke="#fff" stroke-width="1"/>
      <path id="Path_97" data-name="Path 97" d="M47.522,214.284l6.943,7.788v32.419L105.9,239.64V192.067l-50.229-9.9v24.993Z" transform="translate(28.678 109.934)" fill="#f9a31a" stroke="#fff" stroke-linejoin="bevel" stroke-width="1"/>
      <path id="Path_99" data-name="Path 99" d="M68.271,202.818l25.114,4.95V194.3h26.563L150.8,182.949l-29.461-26.8L68.271,177.634Z" transform="translate(41.2 94.232)" fill="#f9a31a" stroke="#fff" stroke-linejoin="bevel" stroke-width="1"/>
      <path id="Path_101" data-name="Path 101" d="M118.828,230.9l-8.338-50.952H83.933V240.98Z" transform="translate(50.652 108.594)" fill="#f9a31a" stroke="#fff" stroke-linejoin="bevel" stroke-width="1"/>
      <path id="Path_103" data-name="Path 103" d="M112.814,177.116,100.5,181.644l8.338,50.952,12.618-3.622Z" transform="translate(60.65 106.886)" fill="#f9a31a" stroke="#fff" stroke-linejoin="bevel" stroke-width="1"/>
      <path id="Path_105" data-name="Path 105" d="M134.5,171.092l-26.321,9.659,8.633,51.858,5.312-1.509Z" transform="translate(65.284 103.251)" fill="#f9a31a" stroke="#fff" stroke-linejoin="bevel" stroke-width="1"/>
      <path id="Path_107" data-name="Path 107" d="M144.71,141.259v31.816l-43.345,17.563,29.522,26.805,7.727-2.838,2.958-14.369h94.48l21.31-43.709-8.391-57.533H206.96Z" transform="translate(61.172 59.741)" fill="#f9a31a" stroke="#fff" stroke-linejoin="bevel" stroke-width="1"/>
      <path id="Path_109" data-name="Path 109" d="M176.672,251.519H159.587l-.544,26.137,21.915,29.28V281.881h28.133l-14.369-46.365h-18.05Z" transform="translate(95.98 142.13)" fill="#f9a31a" stroke="#fff" stroke-linejoin="bevel" stroke-width="1"/>
      <path id="Path_111" data-name="Path 111" d="M223.01,441.327l16.179,18.655,66.046-44.256-28.863-40.568H223.013Z" transform="translate(134.582 226.401)" fill="#f9a31a" stroke="#fff" stroke-linejoin="bevel" stroke-width="1"/>
      <path id="Path_113" data-name="Path 113" d="M323.079,333.693v15.576l13.644,9.116v19.439l-12.98,11.349V366.415l-12.98-10.625-.362.24L285.89,373.116,310.4,389.175v22.458l-15.334,35.86v39.725l11.109-.181.725-5.373,23-16.059-1.69-48.356,53.972-44.256-5.373-50.47Z" transform="translate(172.529 194.637)" fill="#f9a31a" stroke="#fff" stroke-linejoin="bevel" stroke-width="1"/>
      <path id="Path_114" data-name="Path 114" d="M295.694,422.934H284.828V432.9l10.867,6.52Z" transform="translate(171.888 255.233)" fill="#f9a31a" stroke="#fff" stroke-width="1"/>
      <path id="Path_116" data-name="Path 116" d="M348.137,440.328h0v-.011Zm-27.769-39.736-66.046,44.256-16.24-18.655v36.646H197.937l23.3,63.819h76.486l58.862-68.1,2.657-18.413-11.1.181v12.786l-10.867-6.52v-9.961H348.14V400.592Z" transform="translate(119.452 241.75)" fill="#f9a31a" stroke="#fff" stroke-width="1"/>
    </g>
  </g>
</svg>
