<svg xmlns="http://www.w3.org/2000/svg" width="120" height="120" viewBox="0 0 120 120">
  <g id="Group_297" data-name="Group 297" transform="translate(-102 -1719)">
    <rect id="Rectangle_255" data-name="Rectangle 255" width="120" height="120" transform="translate(102 1719)" fill="none"/>
    <g id="Group_199" data-name="Group 199" transform="translate(-788.672 461.365)">
      <path id="Path_193" data-name="Path 193" d="M3816.953,153.855l-4.51,4.509L3829.086,175l-28.348,28.348L3772.39,175l7.624-7.624-4.509-4.509L3763.373,175l37.365,37.365L3838.1,175Z" transform="translate(-2849.702 1142.995)"/>
      <path id="Path_194" data-name="Path 194" d="M3915.58,48.967l4.508-4.509-11.706-11.706-20.723,20.723,4.509,4.509,16.214-16.215Z" transform="translate(-2957.347 1247.883)"/>
      <path id="Path_195" data-name="Path 195" d="M3890.923,120.182l-4.509,4.509L3870.2,140.905l-7.2-7.2-4.509-4.509-4.509,4.509,4.509,4.509,11.706,11.706,20.723-20.723,4.509-4.509Z" transform="translate(-2928.182 1172.16)" fill="#f99f06"/>
    </g>
  </g>
</svg>
