<svg xmlns="http://www.w3.org/2000/svg" width="56" height="56" viewBox="0 0 56 56">
  <g id="ic-expertise-2" transform="translate(-584 -962)">
    <rect id="Rectangle_31" data-name="Rectangle 31" width="56" height="56" transform="translate(584 962)" fill="none"/>
    <path id="Path_18" data-name="Path 18" d="M60.255,27.419a7.462,7.462,0,0,1-8.528,9.6c-1.573-.305-2.991.919-4.126,2.051L39.626,47.02c-1.293,1.288-2.7,2.942-2.246,4.71A7,7,0,0,1,27.223,59.58a6.892,6.892,0,0,0,3.85-4.726c.331-2.082-1.079-4.464-3.177-4.664-2.24-.213-3.963,1.853-5.247,3.7-.464.668-1.436-.246-1.586-1.046-.832-4.427,3.3-9.059,7.8-8.731a6.632,6.632,0,0,0,3.165-.054,4.558,4.558,0,0,0,1.285-.987L42.7,33.882a5.83,5.83,0,0,0,1.827-2.613,9.64,9.64,0,0,0-.024-2.648A7.271,7.271,0,0,1,55.166,21.9c-2.2.834-4.221,2.678-4.438,5.024s2.116,4.8,4.359,4.082c2.031-.654,3.046-3.36,5.167-3.587ZM20.788,29.49a1.785,1.785,0,0,0,2.073-2.83c-.6-.634-.081-1.66.477-2.327a15.539,15.539,0,0,1,8.16-5.388,9.763,9.763,0,0,1,9.191,2.435,17.475,17.475,0,0,0-5.7,3.836,2.481,2.481,0,0,0-.9,1.636,2.671,2.671,0,0,0,1.015,1.732l3.672,3.637c.64.634.068,1.743-.656,2.28s-1.659.969-1.9,1.836c-.325,1.157-1.956,1.446-3.013.874a8,8,0,0,1-2.4-2.645,4.152,4.152,0,0,0-2.833-2.028c-1.2-.079-2.416,1.314-1.753,2.316a2.7,2.7,0,0,1-.092,2.779,7.95,7.95,0,0,1-2.031,2.087,2.484,2.484,0,0,1-1.767.761,2.437,2.437,0,0,1-1.267-.781q-3.193-3.06-6.092-6.408a10.16,10.16,0,0,1,2.227-3.116,3.456,3.456,0,0,1,3.582-.687ZM43.437,47.849a1.742,1.742,0,0,1,.695-1.382L48.2,42.34c.5-.5,1.328-.01,1.841.476L60.99,53.2a1.257,1.257,0,0,1-.012,2.214L56.673,59.6a1.393,1.393,0,0,1-2.422-.131L43.97,48.691A1.72,1.72,0,0,1,43.437,47.849Z" transform="translate(573.688 950.33)" fill="#004873"/>
  </g>
</svg>