<svg xmlns="http://www.w3.org/2000/svg" width="56" height="56" viewBox="0 0 56 56">
  <g id="ic-expertise-3" transform="translate(-917 -962)">
    <rect id="Rectangle_32" data-name="Rectangle 32" width="56" height="56" transform="translate(917 962)" fill="none"/>
    <g id="Group_21" data-name="Group 21" transform="translate(926.333 966.667)">
      <g id="noun-setting-5386529" transform="translate(0 0)">
        <path id="Path_20" data-name="Path 20" d="M58.592,45.431l-.13,7.542a9.884,9.884,0,0,1-.4,3.149,6.684,6.684,0,0,1-4.529,3.865,19.764,19.764,0,0,1-6.134.491l-5.371-.132a12.621,12.621,0,0,1-2.752-.27,7.462,7.462,0,0,1-4.852-4.334,11.053,11.053,0,0,1-.5-6.616,4.345,4.345,0,0,1,1.975-3.2c1.168-.566,2.948.325,2.712,1.6A3.125,3.125,0,0,0,38.845,50c.516.678,1.918.517,1.91-.336l-.139-14.638a6.466,6.466,0,0,1,.446-2.985,2.217,2.217,0,0,1,2.485-1.281c1.255.412,1.5,2.05,1.528,3.37l.117,5.814c.762-.9,2.2-.677,3.285-.233s2.266,1.045,3.379.667c1.278-.435,2.488,2.08,3.549,1.246a1.935,1.935,0,0,1,2.664.761A5.609,5.609,0,0,1,58.592,45.431ZM25.749,17.584c1.18-.324,2.412.168,3.629.3s2.749-.4,2.872-1.617a2.905,2.905,0,0,1,4.184-2.082c1.032.629,1.53,1.836,2.282,2.782s2.183,1.655,3.129.9A2.956,2.956,0,0,1,46.3,19.3c.344,1.217-.155,2.5-.229,3.758s.657,2.824,1.919,2.743c1.513-.1,1.96,2.019,1.855,3.532-.062.895-.331,2.027-1.218,2.157-.869.127-1.442-.826-1.978-1.521a5.073,5.073,0,0,0-6.3-1.274,5.365,5.365,0,0,0-5.719-4.82,5.129,5.129,0,0,0-4.222,6.07,4.914,4.914,0,0,0,6.621,3.087c.419-.208.708.454.713.922q.031,3.173.062,6.346a4.2,4.2,0,0,1-.382,2.208,2.583,2.583,0,0,1-3.018.948,4.229,4.229,0,0,1-2.344-2.365,3,3,0,0,0-4.022-1.362,2.909,2.909,0,0,1-3.87-4.086,2.738,2.738,0,0,0-1.49-3.887,3.15,3.15,0,0,1-.075-6.026,2.923,2.923,0,0,0,1.538-4.111,2.853,2.853,0,0,1,1.6-4.04Z" transform="translate(-20.412 -13.84)" fill="#ffffff"/>
      </g>
    </g>
  </g>
</svg>