<svg xmlns="http://www.w3.org/2000/svg" width="56" height="56" viewBox="0 0 56 56">
  <g id="ic-expertise-4" transform="translate(-1254 -962)">
    <rect id="Rectangle_33" data-name="Rectangle 33" width="56" height="56" transform="translate(1254 962)" fill="none"/>
    <path id="Path_19" data-name="Path 19" d="M59.482,62.194l-23.97-.1c2.347-2.584,2.483-6.423,2.492-9.914q.027-11.5.055-23c0-1.111,1.492-1.456,2.6-1.453l19.75.054a1.756,1.756,0,0,1,1.49.489,1.734,1.734,0,0,1,.212,1.019q0,15.387,0,30.774a2.551,2.551,0,0,1-.21,1.243c-.436.792-1.518.887-2.422.883M47.82,38.237c-.807.746-1.879,1.168-2.643,1.958-1.516,1.565-1.4,4.039-1.194,6.208a1.817,1.817,0,0,0,.662,1.5,1.769,1.769,0,0,0,.748.166,4.084,4.084,0,0,0,2.113-.23,1.443,1.443,0,0,0,.8-1.769,2.291,2.291,0,1,1,4.14.019,1.452,1.452,0,0,0,.84,1.8,4.217,4.217,0,0,0,2.177.176,1.666,1.666,0,0,0,.9-.268,1.685,1.685,0,0,0,.42-1.353l.023-3.475a3.921,3.921,0,0,0-.216-1.612,3.923,3.923,0,0,0-1.124-1.305L52,37.059a2.763,2.763,0,0,0-1.293-.754c-1.194-.19-2,1.111-2.89,1.932m8.988,14.415a2.084,2.084,0,0,0-1.1-.264q-4.936-.236-9.88-.009c-.875.04-1.97.268-2.157,1.124a1.391,1.391,0,0,0,.826,1.435,4.07,4.07,0,0,0,1.743.3l7.752.175a4.221,4.221,0,0,0,2.575-.5C57.29,54.4,57.54,53.158,56.808,52.652ZM34.9,56.5a7.464,7.464,0,0,1-6.46,5.481,7.47,7.47,0,0,1-7.263-4.363,14.619,14.619,0,0,1-.788-5.908L20.5,29.4a15.066,15.066,0,0,1,.3-3.582,7.586,7.586,0,0,1,6.4-5.586,7.34,7.34,0,0,1,7.3,4.27,14.106,14.106,0,0,1,.749,5.615L35.2,53.007A14.548,14.548,0,0,1,34.9,56.5m-10.913-.9c.119,1.381,1.5,2.327,2.848,2.644,1.8.423,4.081-.2,4.646-1.957a3.052,3.052,0,0,0-1.307-3.338,4.371,4.371,0,0,0-3.7-.377c-1.342.433-2.6,1.622-2.484,3.028Z" transform="translate(1240.609 948.806)" fill="#006b4c"/>
  </g>
</svg>