<svg xmlns="http://www.w3.org/2000/svg" width="56" height="56" viewBox="0 0 56 56">
  <g id="ic-expertise-1" transform="translate(-278 -962)">
    <rect id="Rectangle_30" data-name="Rectangle 30" width="56" height="56" transform="translate(278 962)" fill="none"/>
    <path id="Path_17" data-name="Path 17" d="M31.731,46.781a5.173,5.173,0,0,1,1.883.3c1.242.538,1.845,1.911,2.49,3.1s1.7,2.433,3.046,2.321c2.222-.183,2.5-3.445,4.2-4.883,1.156-.975,2.82-.974,4.332-.922a14.253,14.253,0,0,1,6.083,1.111c3.7,1.9,5.009,6.68,4.534,10.814a1.66,1.66,0,0,1-.576,1.279,1.717,1.717,0,0,1-.928.177l-36.571.026c-1.394-4.357-.394-9.9,3.587-12.155,2.353-1.332,5.214-1.271,7.916-1.173Zm5.747-33.022c1.316-.826,3.161.073,3.895,1.442a8.6,8.6,0,0,1,.583,4.562l-.133,2.443c-.051.941,1.461,1.239,2.1.544a3.193,3.193,0,0,0,.432-2.694,4.416,4.416,0,0,1,.091-2.773,7.973,7.973,0,0,1,4.738,6.789c.079,1.6,2.81,2.369,2.4,3.923-.254.972-1.528,1.168-2.533,1.169L29.2,29.184a4.628,4.628,0,0,1-2.094-.324,1.585,1.585,0,0,1-.925-1.738c.331-1.114,2.141-1.347,2.28-2.5A10.881,10.881,0,0,1,32.18,17.7c.268-.227.64-.451.946-.279a.792.792,0,0,1,.324.559,9.293,9.293,0,0,1-.108,2.571,2.7,2.7,0,0,0,.744,2.366c.674.536,1.957.19,1.968-.671l.058-4.653C36.13,16.174,36.276,14.512,37.478,13.758Zm7.781,19.69A4.573,4.573,0,0,1,46,36.416q.02,1.464.039,2.927a5.657,5.657,0,0,1-.4,2.687,4.33,4.33,0,0,1-1.4,1.482,9.481,9.481,0,0,1-10.738-.033A4.054,4.054,0,0,1,32,41.747,5.163,5.163,0,0,1,31.75,40l-.06-2.472c-.036-1.479,0-3.136,1.039-4.184s2.684-1.085,4.155-1.06l4.827.08c1.277.021,2.719.116,3.547,1.088m-4.72,2.489a39.593,39.593,0,0,0-4.369.081,1.291,1.291,0,0,0-.955,1.7,2.236,2.236,0,0,0,1.708,1.314,9.911,9.911,0,0,0,2.247.064,6.064,6.064,0,0,0,2.449-.306,1.6,1.6,0,0,0,.936-2.016C42.2,36.1,41.3,35.965,40.538,35.937Z" transform="translate(266.534 953.225)" fill="#921200"/>
  </g>
</svg>