<svg xmlns="http://www.w3.org/2000/svg" xmlns:xlink="http://www.w3.org/1999/xlink" width="32" height="32" viewBox="0 0 32 32">
  <defs>
    <clipPath id="clip-path">
      <rect id="Rectangle_403" data-name="Rectangle 403" width="32" height="32" fill="#fff"/>
    </clipPath>
  </defs>
  <g id="Group_295" data-name="Group 295" clip-path="url(#clip-path)">
    <path id="Path_296" data-name="Path 296" d="M16,32A16,16,0,1,0,0,16,16,16,0,0,0,16,32Z" fill="#f0f0f0"/>
    <path id="Path_297" data-name="Path 297" d="M39.815,0A16,16,0,0,0,25.4,9.043H54.227A16,16,0,0,0,39.815,0Z" transform="translate(-23.815)" fill="#d80027"/>
    <path id="Path_298" data-name="Path 298" d="M39.815,376.347A16,16,0,0,0,54.227,367.3H25.4A16,16,0,0,0,39.815,376.347Z" transform="translate(-23.815 -344.347)" fill="#d80027"/>
    <path id="Path_299" data-name="Path 299" d="M197.565,185.739l-4.174-7.652-4.174,7.652h3.13v2.087h2.087v-2.087Z" transform="translate(-177.391 -166.957)" fill="#6da544"/>
  </g>
</svg>
