<svg xmlns="http://www.w3.org/2000/svg" width="20" height="20" viewBox="0 0 20 20">
  <g id="social-instagram-24_24" data-name="social-instagram-24*24" transform="translate(-1365 -5715)">
    <g id="_5296765_camera_instagram_instagram_logo_icon" data-name="5296765_camera_instagram_instagram logo_icon" transform="translate(1365 5715)">
      <path id="Path_72" data-name="Path 72" d="M10,0C7.284,0,6.944.012,5.877.06A7.339,7.339,0,0,0,3.45.525,4.9,4.9,0,0,0,1.678,1.678,4.9,4.9,0,0,0,.525,3.45,7.339,7.339,0,0,0,.06,5.877C.011,6.944,0,7.284,0,10s.011,3.056.06,4.123A7.339,7.339,0,0,0,.525,16.55a4.9,4.9,0,0,0,1.153,1.771A4.9,4.9,0,0,0,3.45,19.475a7.34,7.34,0,0,0,2.427.465C6.944,19.988,7.284,20,10,20s3.056-.012,4.123-.06a7.34,7.34,0,0,0,2.427-.465,5.113,5.113,0,0,0,2.925-2.925,7.34,7.34,0,0,0,.465-2.427c.049-1.067.06-1.407.06-4.123s-.012-3.056-.06-4.123a7.34,7.34,0,0,0-.465-2.427,4.9,4.9,0,0,0-1.153-1.771A4.9,4.9,0,0,0,16.55.525,7.339,7.339,0,0,0,14.123.06C13.056.012,12.716,0,10,0Zm0,1.8c2.67,0,2.986.01,4.041.058A5.534,5.534,0,0,1,15.9,2.2a3.1,3.1,0,0,1,1.15.748A3.1,3.1,0,0,1,17.8,4.1a5.533,5.533,0,0,1,.344,1.857C18.188,7.014,18.2,7.33,18.2,10s-.01,2.986-.058,4.041A5.533,5.533,0,0,1,17.8,15.9a3.312,3.312,0,0,1-1.9,1.9,5.532,5.532,0,0,1-1.857.344c-1.054.048-1.371.058-4.041.058s-2.987-.01-4.041-.058A5.532,5.532,0,0,1,4.1,17.8a3.1,3.1,0,0,1-1.15-.748A3.1,3.1,0,0,1,2.2,15.9a5.533,5.533,0,0,1-.344-1.857C1.812,12.986,1.8,12.67,1.8,10s.01-2.986.058-4.041A5.533,5.533,0,0,1,2.2,4.1a3.1,3.1,0,0,1,.748-1.15A3.1,3.1,0,0,1,4.1,2.2,5.534,5.534,0,0,1,5.959,1.86C7.014,1.812,7.33,1.8,10,1.8Z" transform="translate(0)" fill="#fff"/>
      <path id="Path_73" data-name="Path 73" d="M129.675,133.008a3.333,3.333,0,1,1,3.333-3.333A3.333,3.333,0,0,1,129.675,133.008Zm0-8.468a5.135,5.135,0,1,0,5.135,5.135A5.135,5.135,0,0,0,129.675,124.54Z" transform="translate(-119.675 -119.675)" fill="#fff"/>
      <path id="Path_74" data-name="Path 74" d="M364.332,89.827a1.2,1.2,0,1,1-1.2-1.2A1.2,1.2,0,0,1,364.332,89.827Z" transform="translate(-347.794 -85.165)" fill="#fff"/>
    </g>
    <rect id="Rectangle_74" data-name="Rectangle 74" width="20" height="20" transform="translate(1365 5715)" fill="none"/>
  </g>
</svg>
