<svg xmlns="http://www.w3.org/2000/svg" width="20" height="20" viewBox="0 0 20 20">
  <g id="social-linkedin-24_24" data-name="social-linkedin-24*24" transform="translate(-1378 -5624)">
    <g id="g5891" transform="translate(1323 5570.72)">
      <g id="shapes" transform="translate(56 54.28)">
        <rect id="rect11" width="4.043" height="12.144" transform="translate(0.238 5.856)" fill="#fff"/>
        <path id="path13-0" d="M58.287,54.28a2.1,2.1,0,1,0-.054,4.2h.026a2.105,2.105,0,1,0,.027-4.2Z" transform="translate(-56 -54.28)" fill="#fff"/>
        <path id="path15" d="M201.949,172.6a4.016,4.016,0,0,0-3.643,2.005v-1.719h-4.042c.054,1.139,0,12.144,0,12.144h4.042v-6.782a2.755,2.755,0,0,1,.133-.985,2.212,2.212,0,0,1,2.074-1.476c1.462,0,2.048,1.114,2.048,2.746v6.5H206.6v-6.964C206.6,174.336,204.609,172.6,201.949,172.6Z" transform="translate(-187.746 -167.031)" fill="#fff"/>
      </g>
    </g>
    <rect id="Rectangle_75" data-name="Rectangle 75" width="20" height="20" transform="translate(1378 5624)" fill="none"/>
  </g>
</svg>
