<svg xmlns="http://www.w3.org/2000/svg" width="120" height="120" viewBox="0 0 120 120">
  <g id="Group_299" data-name="Group 299" transform="translate(-102 -1585)">
    <rect id="Rectangle_254" data-name="Rectangle 254" width="120" height="120" transform="translate(102 1585)" fill="none"/>
    <g id="Group_198" data-name="Group 198" transform="translate(-626.873 326.75)">
      <path id="Path_200" data-name="Path 200" d="M2711.944,164.89h32.235l-15.755,15.755Z" transform="translate(-1939.053 1133.437)" fill="#f99f06"/>
      <path id="Path_201" data-name="Path 201" d="M2768.592,478.672h17.238l-9.05,9.05Z" transform="translate(-1988.115 861.669)" fill="#f99f06"/>
      <rect id="Rectangle_248" data-name="Rectangle 248" width="21.868" height="6.002" transform="translate(778.035 1353.748)"/>
      <path id="Path_202" data-name="Path 202" d="M2676.02,22.078l13.053-13.053,13.016,13.089L2689.073,35.13ZM2689.073,0,2667,22.078l22.078,22.077,22.077-22.077Z" transform="translate(-1900.121 1276.25)"/>
      <path id="Path_203" data-name="Path 203" d="M2689.072,263.638l-22.078,22.078,22.078,22.078,22.077-22.078Zm-13.053,22.078,13.053-13.053,13.016,13.089-13.016,13.016Z" transform="translate(-1900.121 1047.911)"/>
    </g>
  </g>
</svg>
